<?xml version="1.0" standalone="no"?>
<!DOCTYPE svg PUBLIC "-//W3C//DTD SVG 20010904//EN"
 "http://www.w3.org/TR/2001/REC-SVG-20010904/DTD/svg10.dtd">
<svg version="1.0" xmlns="http://www.w3.org/2000/svg"
 width="159.000000pt" height="120.000000pt" viewBox="0 0 159.000000 120.000000"
 preserveAspectRatio="xMidYMid meet">

<g transform="translate(0.000000,120.000000) scale(0.100000,-0.100000)"
fill="#000000" stroke="none">
<path d="M669 1196 c-3 -3 -36 -10 -74 -16 -167 -26 -353 -112 -520 -240 -62
-48 -80 -85 -54 -116 22 -26 58 -15 139 45 166 123 321 188 513 216 106 16
123 16 225 1 198 -29 359 -97 526 -223 83 -62 120 -75 144 -51 18 18 14 64 -7
79 -10 8 -51 39 -92 69 -213 159 -448 240 -695 240 -55 0 -103 -2 -105 -4z"/>
<path d="M705 880 c-78 -9 -136 -26 -211 -60 -74 -33 -198 -116 -238 -159 -26
-27 -28 -35 -20 -59 7 -20 17 -28 40 -30 18 -2 38 3 45 10 37 36 155 112 221
142 146 66 293 73 445 21 l82 -28 45 24 c25 13 46 27 46 31 0 13 -112 65 -185
86 -83 24 -187 32 -270 22z"/>
<path d="M1240 676 c-173 -35 -271 -207 -210 -368 27 -73 70 -122 138 -155 47
-23 70 -28 132 -28 64 1 83 5 129 30 87 48 135 119 147 217 22 188 -148 341
-336 304z m148 -76 c23 -10 42 -23 42 -28 0 -16 -300 -303 -310 -297 -23 14
-43 73 -43 125 0 160 165 267 311 200z m122 -145 c44 -158 -121 -313 -279
-260 -28 9 -51 20 -51 23 0 4 66 73 147 154 104 105 150 144 159 137 6 -5 17
-29 24 -54z"/>
<path d="M695 561 c-181 -45 -296 -147 -221 -196 27 -18 25 -19 134 50 64 40
157 60 240 50 33 -4 62 -3 65 2 2 4 8 26 11 49 l7 41 -57 11 c-73 15 -94 14
-179 -7z"/>
<path d="M719 237 c-22 -14 -39 -38 -48 -64 -13 -36 -13 -45 2 -84 45 -117
199 -117 244 0 15 39 15 48 2 84 -28 81 -127 113 -200 64z"/>
</g>
</svg>
