<svg xmlns="http://www.w3.org/2000/svg" width="60" height="17" viewBox="0 0 60 17">
    <g fill="none" fill-rule="evenodd">
        <path fill="#4B9740" d="M11.103 1.434l-2.206-.083-.107.13c.246.245.44.578.584 1 .143.422.215.877.215 1.366 0 1.285-.4 2.276-1.199 2.974-.8.698-1.934 1.047-3.405 1.047-.66 0-1.228-.083-1.705-.249-.605.458-.907.907-.907 1.349 0 .291.058.512.173.662.115.15.306.256.573.32.266.062.67.094 1.21.094h2.862c.843 0 1.53.13 2.064.39.532.26.912.61 1.139 1.047.226.437.34.948.34 1.531 0 .742-.215 1.402-.645 1.981-.429.58-1.049 1.031-1.86 1.354-.811.324-1.757.485-2.838.485-.803 0-1.537-.047-2.2-.142-.665-.094-1.233-.254-1.706-.479-.473-.224-.839-.52-1.097-.887C.129 14.958 0 14.5 0 13.947c0-.497.167-.948.5-1.354.335-.407.808-.763 1.42-1.07a1.98 1.98 0 0 1-.882-.663A1.689 1.689 0 0 1 .716 9.83c0-.45.127-.861.381-1.236.255-.374.704-.802 1.348-1.283a3.315 3.315 0 0 1-1.306-1.348C.84 5.396.692 4.749.692 4.024c0-.678.113-1.267.34-1.768.226-.5.54-.915.942-1.242A4.029 4.029 0 0 1 3.399.281 6.262 6.262 0 0 1 5.176.038c.572 0 1.14.068 1.705.202h4.222v1.194zm-8.277 2.4c0 .986.203 1.747.609 2.283.405.537.99.805 1.753.805.405 0 .751-.077 1.037-.231.287-.154.52-.365.698-.633.179-.268.31-.577.394-.928.083-.351.125-.72.125-1.106 0-.694-.1-1.273-.298-1.738-.2-.466-.47-.807-.811-1.023a2.157 2.157 0 0 0-1.18-.326c-.756 0-1.333.249-1.73.745-.398.497-.597 1.215-.597 2.153zm.299 7.901c-.406.3-.71.617-.913.952a2.16 2.16 0 0 0-.304 1.141c0 .71.284 1.232.853 1.567.568.336 1.437.503 2.606.503.715 0 1.33-.095 1.842-.284.513-.189.905-.461 1.175-.816.27-.355.406-.769.406-1.242 0-.22-.028-.435-.084-.644a1.304 1.304 0 0 0-.316-.562c-.155-.166-.376-.298-.662-.396-.286-.099-.66-.148-1.121-.148H4.83a18.07 18.07 0 0 1-1.705-.07zm14.537 0c-1.653 0-2.915-.483-3.786-1.449C13.006 9.32 12.57 7.891 12.57 6c0-1.3.229-2.4.686-3.3.457-.898 1.083-1.567 1.878-2.004.795-.438 1.702-.657 2.72-.657 1.7 0 2.989.491 3.863 1.473.875.982 1.312 2.39 1.312 4.228 0 1.309-.218 2.413-.656 3.311-.437.9-1.057 1.571-1.86 2.017-.803.445-1.753.668-2.85.668zm-2.838-5.984c0 1.624.26 2.872.781 3.743s1.266 1.307 2.236 1.307c.533 0 .986-.128 1.36-.385.374-.256.678-.6.912-1.034.235-.434.404-.937.507-1.508.104-.572.155-1.17.155-1.792 0-1.16-.129-2.121-.387-2.886-.259-.765-.61-1.326-1.056-1.685a2.366 2.366 0 0 0-1.526-.538c-.962 0-1.7.414-2.213 1.242-.513.827-.769 2.006-.769 3.536zm15.802 5.984c-1.654 0-2.916-.483-3.786-1.449-.871-.966-1.306-2.395-1.306-4.287 0-1.3.228-2.4.685-3.3.458-.898 1.084-1.567 1.879-2.004.795-.438 1.701-.657 2.719-.657 1.701 0 2.99.491 3.864 1.473.875.982 1.312 2.39 1.312 4.228 0 1.309-.219 2.413-.656 3.311-.437.9-1.058 1.571-1.86 2.017-.804.445-1.754.668-2.85.668zm-2.838-5.984c0 1.624.26 2.872.78 3.743.522.871 1.267 1.307 2.237 1.307.533 0 .986-.128 1.36-.385.373-.256.677-.6.912-1.034.234-.434.403-.937.507-1.508.103-.572.155-1.17.155-1.792 0-1.16-.13-2.121-.388-2.886-.258-.765-.61-1.326-1.055-1.685a2.366 2.366 0 0 0-1.527-.538c-.962 0-1.7.414-2.212 1.242-.513.827-.77 2.006-.77 3.536z"/>
        <path fill="#2C71C0" d="M41.622 2.203l.167.035c.437-.528.843-.944 1.216-1.247a4.406 4.406 0 0 1 1.21-.704A4.103 4.103 0 0 1 45.69.038c.46 0 .878.024 1.252.071v2.72h-1.348c-.19-.425-.393-.735-.608-.928-.215-.193-.509-.29-.882-.29-.287 0-.57.083-.853.249a3.17 3.17 0 0 0-.817.721c-.262.316-.443.611-.543.887a2.9 2.9 0 0 0-.149.982v4.14c0 .717.044 1.211.131 1.483.088.272.233.472.436.598.202.126.507.224.912.295v.58h-4.806v-.58c.302-.094.519-.177.65-.248a1.05 1.05 0 0 0 .34-.296c.095-.126.167-.319.214-.58.048-.26.072-.665.072-1.217V3.468c0-.504-.008-.91-.024-1.218-.016-.307-.071-.554-.167-.74a.903.903 0 0 0-.435-.413c-.195-.09-.471-.168-.83-.23V.25l2.792-.118h.727l-.131 2.07zM48.217.24h3.399v6.02c0 .922.036 1.624.107 2.104.072.481.18.844.322 1.089.143.244.346.449.609.615.262.165.624.248 1.085.248.302 0 .592-.06.87-.178.279-.118.589-.325.93-.62.343-.296.587-.59.734-.882.147-.291.22-.63.22-1.017V3.184c0-.449-.011-.788-.035-1.017a2.083 2.083 0 0 0-.12-.55 1.184 1.184 0 0 0-.196-.337 1.06 1.06 0 0 0-.322-.236 3.51 3.51 0 0 0-.674-.225V.24h3.399v8.078c0 .607.012 1.045.036 1.313.024.268.075.48.155.639a.93.93 0 0 0 .37.384c.167.098.465.191.894.278v.615l-2.731.118h-.728l.072-1.94-.179-.047c-.66.71-1.29 1.23-1.89 1.561-.6.332-1.203.497-1.807.497-.723 0-1.32-.142-1.789-.426-.469-.284-.819-.707-1.05-1.271-.23-.564-.345-1.358-.345-2.383v-4.47c0-.663-.026-1.118-.078-1.367a1.134 1.134 0 0 0-.298-.59c-.147-.147-.467-.283-.96-.409V.24z"/>
    </g>
</svg>
