<svg xmlns="http://www.w3.org/2000/svg" width="24" height="24" viewBox="0 0 24 24">
    <path fill="#37424B" fill-rule="evenodd" d="M18.536 16.894v-9.43H12v9.43h6.536zm0-10.894c.386 0 .726.148 1.021.443.295.295.443.635.443 1.02v9.43c0 .386-.148.727-.443 1.022-.295.295-.635.442-1.02.442H5.463c-.386 0-.726-.147-1.021-.442C4.148 17.62 4 17.279 4 16.894v-9.43c0-.386.148-.726.443-1.021.295-.295.635-.443 1.02-.443h13.073zm-5.821 7.626h5.106v1.089h-5.106v-1.09zm0-3.609h5.106v1.09h-5.106v-1.09zm0 1.804h5.106v1.09h-5.106v-1.09z"/>
</svg>
