<svg xmlns="http://www.w3.org/2000/svg" width="24" height="24" viewBox="0 0 24 24">
    <path fill="rgb(55, 66, 75)" fill-rule="evenodd" d="M18.5 6c.828 0 1.5.672 1.5 1.5v9c0 .828-.672 1.5-1.5 1.5h-13c-.828 0-1.5-.672-1.5-1.5v-9C4 6.672 4.672 6 5.5 6h13zm-4.617 6.176c-.207 0-.398.034-.573.103-.176.068-.329.168-.46.3-.13.131-.233.293-.306.486-.073.193-.11.412-.11.658 0 .24.037.454.11.643.073.188.175.348.306.478s.284.229.46.297c.175.069.366.103.573.103.192 0 .376-.034.551-.103.176-.068.33-.167.462-.297.133-.13.238-.29.318-.478.079-.189.119-.403.119-.643 0-.246-.037-.465-.11-.658-.073-.193-.175-.355-.306-.486-.131-.132-.285-.232-.462-.3-.177-.069-.367-.103-.572-.103zM14.89 9.03h-.585c-.073 0-.132.014-.176.04-.044.028-.086.066-.126.114L9.24 15.171h.603c.058 0 .108-.011.151-.034.043-.023.08-.053.11-.09l4.786-6.017zm-1.006 3.651c.113 0 .22.019.318.056.1.037.186.097.26.18.075.083.134.19.177.324.042.133.064.293.064.482 0 .186-.022.343-.064.471-.043.129-.102.234-.176.315-.075.082-.162.14-.26.176-.1.036-.206.054-.319.054-.112 0-.218-.018-.317-.054-.1-.036-.185-.094-.259-.176-.073-.081-.13-.186-.171-.315-.041-.128-.062-.285-.062-.471 0-.189.02-.35.062-.482.041-.133.098-.241.171-.324.074-.083.16-.143.259-.18.099-.037.205-.056.317-.056zM10.258 8.97c-.207 0-.398.034-.573.103-.176.068-.329.168-.46.3-.13.131-.233.293-.306.484-.073.192-.11.41-.11.656 0 .24.037.455.11.645.073.19.175.35.306.48s.284.23.46.298c.175.068.366.103.573.103.192 0 .377-.035.553-.103.177-.069.332-.168.464-.298.133-.13.239-.29.318-.48.08-.19.119-.405.119-.645 0-.246-.037-.464-.112-.656-.075-.191-.177-.353-.306-.484-.13-.132-.284-.232-.462-.3-.178-.069-.37-.103-.574-.103zm0 .501c.113 0 .219.019.318.056.099.037.186.098.26.182.075.085.134.192.177.324.042.131.064.291.064.48 0 .186-.022.343-.064.473-.043.13-.102.236-.176.318-.075.081-.162.14-.261.175-.099.036-.205.054-.318.054-.112 0-.218-.018-.317-.054-.1-.035-.186-.094-.259-.175-.073-.082-.13-.188-.171-.318-.041-.13-.062-.287-.062-.473 0-.189.02-.349.062-.48.041-.132.098-.24.171-.324.073-.084.16-.145.259-.182.099-.037.205-.056.317-.056z"/>
</svg>
