<svg xmlns="http://www.w3.org/2000/svg" width="24" height="24" viewBox="0 0 24 24">
    <path fill="#0072BC" fill-rule="evenodd" d="M8.842 14.415V18H5.79C4.801 18 4 17.204 4 16.208v-1.793h4.842zm5.58 0V18H9.578v-3.585h4.842zm5.578 0v1.793c0 .99-.8 1.792-1.79 1.792h-3.052v-3.585H20zM8.842 10.208v3.584H4v-3.584h4.842zm5.58 0v3.584H9.578v-3.584h4.842zm5.578 0v3.584h-4.842v-3.584H20zM8.842 6v3.585H4V7.792C4 6.802 4.8 6 5.79 6h3.052zm5.58 0v3.585H9.578V6h4.842zm3.789 0C19.199 6 20 6.796 20 7.792v1.793h-4.842V6h3.053z"/>
</svg>
