<svg xmlns="http://www.w3.org/2000/svg" width="24" height="24" viewBox="0 0 24 24">
    <g fill="none" fill-rule="evenodd">
        <g fill="#37424B">
            <g>
                <g>
                    <g>
                        <g>
                            <path d="M13 16v-5h-2v5h2zm-9-4c0 4.4 3.6 8 8 8s8-3.6 8-8-3.6-8-8-8-8 3.6-8 8zm2 0c0-3.3 2.7-6 6-6s6 2.7 6 6-2.7 6-6 6-6-2.7-6-6zm7-2V8h-2v2h2z" transform="translate(-813 -399) translate(441 96) translate(360 287) translate(0 4) translate(12 12)"/>
                        </g>
                    </g>
                </g>
            </g>
        </g>
    </g>
</svg>
