<svg xmlns="http://www.w3.org/2000/svg" width="24" height="24" viewBox="0 0 24 24">
    <path fill="#b8bfc4" fill-rule="evenodd" d="M20.465 12.036c.011-.53-.254-1.047-.768-1.507.013-.07.02-.138.02-.206 0-.67-.546-1.214-1.215-1.214a1.2 1.2 0 0 0-.808.311c-.34-.125-.717-.242-1.126-.35.682-2.506.463-4.27-.613-4.865-.24-.133-.51-.2-.805-.2-.947 0-2.152.718-3.413 2.03C10.477 4.72 9.272 4 8.325 4c-.294 0-.564.067-.803.198-.415.229-.913.758-.993 1.985a1.223 1.223 0 0 0-.737 1.115c0 .584.418 1.076.972 1.19.03.14.063.276.097.41-2.433.567-3.835 1.567-3.86 2.767-.022 1.003.932 1.921 2.687 2.585.36.136.767.264 1.214.382-.048.174-.09.344-.13.509-.557.11-.98.602-.98 1.192 0 .49.289.919.724 1.11.065 1.272.57 1.819.994 2.053.24.132.51.2.805.2.947 0 2.152-.719 3.413-2.03 1.26 1.315 2.465 2.034 3.413 2.034.293 0 .563-.066.802-.197 1.05-.578 1.286-2.283.662-4.701 2.433-.567 3.834-1.567 3.86-2.766zm-4.996 6.605a.671.671 0 0 1-.328.076c-.673 0-1.667-.65-2.748-1.792a19.52 19.52 0 0 0 1.276-1.707c.687-.045 1.348-.12 1.972-.224.557 2.131.31 3.381-.172 3.647zm-7.154.07a.677.677 0 0 1-.33-.076c-.278-.154-.448-.574-.486-1.193.43-.192.722-.626.722-1.109a1.2 1.2 0 0 0-.49-.972c.038-.162.08-.331.129-.505.594.12 1.225.215 1.88.283.43.65.875 1.25 1.325 1.785-1.082 1.14-2.076 1.788-2.75 1.788zM7.997 5.06a.671.671 0 0 1 .328-.076c.673 0 1.667.65 2.747 1.792-.432.513-.86 1.086-1.276 1.707a19.69 19.69 0 0 0-1.969.223c-.036-.14-.07-.284-.103-.431.308-.226.497-.59.497-.977 0-.485-.282-.91-.71-1.103.047-.587.216-.987.486-1.135zm7.153-.071c.126 0 .237.026.33.077.497.274.737 1.57.13 3.78-.597-.121-1.23-.217-1.885-.285-.43-.65-.874-1.248-1.324-1.784 1.081-1.14 2.076-1.788 2.75-1.788zm-6.402 5.213c-.084.152-.168.31-.255.477-.14-.346-.266-.686-.378-1.02.33-.052.671-.096 1.02-.132-.134.226-.263.45-.387.675zm-.596 3.71c.1-.29.214-.59.339-.896a20.466 20.466 0 0 0 .58 1.05 18.416 18.416 0 0 1-.92-.154zm.854-2.064a21.574 21.574 0 0 1 1.342-2.41 22.871 22.871 0 0 1 2.807.056 21.926 21.926 0 0 1 1.306 2.358 21.713 21.713 0 0 1-1.344 2.41 22.796 22.796 0 0 1-2.808-.056 21.969 21.969 0 0 1-1.303-2.358zm5.324 2.326a22.529 22.529 0 0 0 .646-1.156c.141.347.268.689.38 1.023-.333.053-.676.097-1.026.133zm.987-4.385c-.102.295-.215.595-.339.899a23.215 23.215 0 0 0-.583-1.053c.319.045.627.097.922.154zM11.805 8.44a24.248 24.248 0 0 0-.774-.004c.23-.314.465-.617.705-.906.246.297.488.61.723.935-.23-.013-.446-.02-.654-.025zM7.141 9.846c.215.658.476 1.33.78 2.002-.282.62-.527 1.239-.732 1.843a11.507 11.507 0 0 1-1.153-.361c-1.277-.483-2.064-1.113-2.052-1.645.014-.693 1.244-1.405 3.157-1.84zm4.52 5.414c.26.005.516.007.773.004-.23.315-.465.617-.705.906a18.16 18.16 0 0 1-.723-.935c.23.012.444.02.654.025zm4.667-1.405a19.76 19.76 0 0 0-.782-2.002c.284-.625.53-1.244.733-1.843.365.096.703.199 1.009.309v.004a1.216 1.216 0 0 0 1.853 1.033c.183.183.346.416.34.659-.014.694-1.243 1.407-3.153 1.84z" opacity=".5"/>
</svg>
