<svg xmlns="http://www.w3.org/2000/svg" width="24" height="24" viewBox="0 0 24 24">
    <path fill="none" fill-rule="evenodd" stroke="#0072BC" d="M12 3.5c2.347 0 4.472.951 6.01 2.49C19.55 7.528 20.5 9.653 20.5 12s-.951 4.472-2.49 6.01C16.472 19.55 14.347 20.5 12 20.5s-4.472-.951-6.01-2.49C4.45 16.472 3.5 14.347 3.5 12s.951-4.472 2.49-6.01C7.528 4.45 9.653 3.5 12 3.5zm0 8c-.1 0-.193.03-.27.08-.138.09-.228.246-.234.42.006.174.096.33.233.42.078.05.17.08.271.08.1 0 .193-.03.27-.08.138-.09.228-.246.234-.42-.006-.174-.096-.33-.233-.42-.078-.05-.17-.08-.271-.08zm-3 0c-.138 0-.263.056-.353.147-.09.09-.147.215-.147.353 0 .138.056.263.147.353.09.09.215.147.353.147.1 0 .193-.03.27-.08.138-.09.228-.246.234-.42-.006-.174-.096-.33-.233-.42-.078-.05-.17-.08-.271-.08zm5.73.08c-.138.09-.228.246-.234.42.006.174.096.33.233.42.078.05.17.08.271.08.138 0 .263-.056.353-.147.09-.09.147-.215.147-.353 0-.138-.056-.263-.147-.353-.09-.09-.215-.147-.624-.067z"/>
</svg>
