<svg xmlns="http://www.w3.org/2000/svg" width="24" height="24" viewBox="0 0 24 24">
    <path fill="#FFF" fill-rule="evenodd" d="M11.378 8.978c.089-.356.178-.534.178-.8V8c.088-.444.088-.8 0-.889v-.089l-.09-.089s0 .09-.088.09c-.178.533-.178 1.155 0 1.955zM8.71 15.11c-.178.089-.355.178-.444.267-.623.533-1.067 1.155-1.156 1.422.533-.089 1.067-.622 1.6-1.689zm8.178-1.333c-.089-.09-.445-.356-1.689-.356h-.178v.09c.622.266 1.245.444 1.69.444h.266v-.09s-.09 0-.09-.088zM18.222 4H5.778C4.8 4 4 4.8 4 5.778v12.444C4 19.2 4.8 20 5.778 20h12.444C19.2 20 20 19.2 20 18.222V5.778C20 4.8 19.2 4 18.222 4zm-.978 10.489c-.177.089-.444.178-.8.178-.71 0-1.777-.178-2.666-.623-1.511.178-2.667.356-3.556.712-.089 0-.089 0-.178.088C8.978 16.711 8.09 17.6 7.378 17.6c-.178 0-.267 0-.356-.089l-.444-.267v-.088c-.09-.178-.09-.267-.09-.445.09-.444.623-1.244 1.69-1.867.178-.088.444-.266.8-.444.266-.444.533-.978.889-1.6.444-.889.71-1.778.977-2.578-.355-1.066-.533-1.689-.177-2.933.089-.356.355-.711.71-.711h.179c.177 0 .355.089.533.178.622.622.355 2.044 0 3.2v.088c.355.978.889 1.778 1.422 2.312.267.177.445.355.8.533.445 0 .8-.089 1.156-.089 1.066 0 1.777.178 2.044.622.089.178.089.356.089.534-.089.088-.178.355-.356.533zm-5.777-3.467c-.178.622-.534 1.334-.89 2.134-.177.355-.355.622-.533.977h.178c1.156-.444 2.222-.71 2.934-.8-.178-.089-.267-.177-.356-.266-.444-.534-.978-1.245-1.333-2.045z"/>
</svg>
