<svg xmlns="http://www.w3.org/2000/svg" width="24" height="24" viewBox="0 0 24 24">
    <g fill="none" fill-rule="evenodd">
        <g fill="#525252">
            <g>
                <g>
                    <path d="M4 12c1.236 3.52 4.364 6 8 6s6.764-2.48 8-6c-1.236-3.52-4.364-6-8-6s-6.764 2.48-8 6zm4.364 0c0-2.24 1.6-4 3.636-4s3.636 1.76 3.636 4-1.6 4-3.636 4-3.636-1.76-3.636-4zm1.454 0c0 1.36.946 2.4 2.182 2.4s2.182-1.04 2.182-2.4c0-1.36-.946-2.4-2.182-2.4S9.818 10.64 9.818 12z" transform="translate(-70 -596) translate(58 560) translate(12 36)"/>
                </g>
            </g>
        </g>
    </g>
</svg>
