<svg xmlns="http://www.w3.org/2000/svg" width="22" height="22" viewBox="0 0 22 22">
    <path fill="#212121" fill-rule="evenodd" d="M18.625 11.84c0-.312.104-.624.104-1.04 0-.416 0-.728-.104-1.04l2.184-1.768c.208-.208.208-.416.104-.624l-2.08-3.64c-.104-.104-.312-.208-.624-.104l-2.6 1.04c-.52-.416-1.144-.728-1.768-1.04L13.425.92c.104-.312-.208-.52-.416-.52h-4.16c-.208 0-.52.208-.52.416l-.416 2.808c-.624.208-1.144.624-1.768 1.04l-2.496-1.04c-.312-.104-.52 0-.728.208L.84 7.472c-.104.104 0 .416.208.624L3.233 9.76c0 .312-.104.624-.104 1.04 0 .416 0 .728.104 1.04l-2.184 1.768c-.208.208-.208.416-.104.624l2.08 3.64c.104.104.312.208.624.104l2.6-1.04c.52.416 1.144.728 1.768 1.04l.416 2.704c0 .208.208.416.52.416h4.16c.208 0 .52-.208.52-.416l.416-2.704c.624-.312 1.248-.624 1.768-1.04l2.6 1.04a.5.5 0 0 0 .624-.208l2.08-3.64c.104-.208.104-.52-.104-.624l-2.392-1.664zm-7.696 2.6c-1.976 0-3.64-1.664-3.64-3.64 0-1.976 1.664-3.64 3.64-3.64 1.976 0 3.64 1.664 3.64 3.64 0 1.976-1.664 3.64-3.64 3.64z" opacity=".5"/>
</svg>
