<?xml version="1.0" encoding="UTF-8"?>
<svg width="24px" height="24px" viewBox="0 0 24 24" version="1.1" xmlns="http://www.w3.org/2000/svg" xmlns:xlink="http://www.w3.org/1999/xlink">
    <title>2654F562-98F5-4F66-A317-B624B6541E8A</title>
    <g id="Symbols" stroke="none" stroke-width="1" fill="none" fill-rule="evenodd">
        <g id="Group" transform="translate(4.000000, 6.000000)">
            <path d="M13.3956483,0.0030597231 C14.3852763,0.0030597231 15,-0.141405369 15,1.55499722 L15,1.55499722 L15,9.04195376 L1,9.04195376 L1,1.55499722 L1,1.55499722 C1,-0.141405369 1.61472374,0.0030597231 2.60435172,0.0030597231 Z" id="Combined-Shape" fill="#37424B"></path>
            <path d="M10.3033199,10.8308526 L11.0142542,10 L16,10 C15.9647122,11.6401929 15.61714,12.4602893 14.9572835,12.4602893 L14.9572835,12.4602893 L1.04271646,12.4602893 L1.04271646,12.4602893 C0.382859966,12.4602893 0.0352878112,11.6401929 0,10 L4.9857458,10 L5.69668012,10.8308526 L10.3033199,10.8308526 Z" id="Combined-Shape" fill="#37424B"></path>
            <path d="M5,3 C5,3.56666667 4.56666667,4 4,4 C3.43333333,4 3,3.56666667 3,3 C3,2.43333333 3.43333333,2 4,2 C4.56666667,2 5,2.43333333 5,3 Z" id="Path" fill="#FFFFFF"></path>
            <path d="M13,3 C13,3.56666667 12.5666667,4 12,4 C11.4333333,4 11,3.56666667 11,3 C11,2.43333333 11.4333333,2 12,2 C12.5666667,2 13,2.43333333 13,3 Z" id="Path" fill="#FFFFFF"></path>
            <path d="M2,5.98412698 C2,5.34920635 3.33333333,5 4,5 C4.66666667,5 6,5.34920635 6,5.98412698 C5.56666667,6.58730159 4.83333333,7 4,7 C3.16666667,7 2.43333333,6.58730159 2,5.98412698 Z" id="Path" fill="#FFFFFF"></path>
            <path d="M10,5.98412698 C10,5.34920635 11.3333333,5 12,5 C12.6666667,5 14,5.34920635 14,5.98412698 C13.5666667,6.58730159 12.8333333,7 12,7 C11.1666667,7 10.4333333,6.58730159 10,5.98412698 Z" id="Path" fill="#FFFFFF"></path>
        </g>
    </g>
</svg>