<svg xmlns="http://www.w3.org/2000/svg" width="24" height="24" viewBox="0 0 24 24">
    <g fill="#b8bfc4" fill-rule="evenodd" opacity=".5">
        <path d="M7.067 16.8H5.524v.8h1.714c.174.243.45.4.762.4a.937.937 0 0 0 .762-.4h9.562v-.8h-9.39C8.844 16.343 8.46 16 8 16c-.46 0-.845.343-.933.8zM20 19.2c0 .334-.42.8-.762.8H4.762C4.42 20 4 19.534 4 19.2V4.8c0-.335.42-.8.762-.8h14.476c.342 0 .762.465.762.8v14.4zM5.6 5.6h12.952v9.6H5.6V5.6z"/>
        <path d="M10.4 8.808c0 .05.271-.12.9 0L14 11c.083-.17.083.17 0 0l-2.7 2.192c-.629.12-.9-.05-.9 0V8.808"/>
    </g>
</svg>
