<svg xmlns="http://www.w3.org/2000/svg" width="24" height="24" viewBox="0 0 24 24">
    <g fill="#b8bfc4" fill-rule="evenodd" opacity=".5">
        <path d="M12 20c-4.411 0-8-3.589-8-8s3.589-8 8-8 8 3.589 8 8-3.589 8-8 8zm0-14.88A6.889 6.889 0 0 0 5.12 12 6.889 6.889 0 0 0 12 18.88 6.889 6.889 0 0 0 18.88 12 6.889 6.889 0 0 0 12 5.12z"/>
        <path d="M11.467 4.505h1.107V19h-1.107z"/>
        <path d="M10 5l1.247-.622-.362-.436.363.436c-.271.246-5.871 6.875.752 15.127h-1.54C3.127 10.368 9.925 5.067 10 5zM12 19.505l.533-.505c.272-.246 6.623-6.5 0-14.753l1.467.13c7.333 9.138-.604 15.061-.68 15.128H12z"/>
        <path d="M5.6 8.042h12.649V9.1H5.6zM5.224 14.105h13.4v1.058h-13.4zM4.533 11.074h14.718v1.058H4.533z"/>
    </g>
</svg>
